<?xml version="1.0" encoding="UTF-8" standalone="no"?>
<svg
   version="1.0"
   width="794.000000pt"
   height="794.000000pt"
   viewBox="0 0 794.000000 794.000000"
   preserveAspectRatio="xMidYMid meet"
   id="svg54"
   sodipodi:docname="1de319e139fe9178a91295efd480c0f1.svg"
   xmlns:inkscape="http://www.inkscape.org/namespaces/inkscape"
   xmlns:sodipodi="http://sodipodi.sourceforge.net/DTD/sodipodi-0.dtd"
   xmlns="http://www.w3.org/2000/svg"
   xmlns:svg="http://www.w3.org/2000/svg">
  <defs
     id="defs58" />
  <sodipodi:namedview
     id="namedview56"
     pagecolor="#ffffff"
     bordercolor="#666666"
     borderopacity="1.0"
     inkscape:pageshadow="2"
     inkscape:pageopacity="0.0"
     inkscape:pagecheckerboard="0"
     inkscape:document-units="pt" />
  <metadata
     id="metadata2">
Created by potrace 1.16, written by Peter Selinger 2001-2019
</metadata>
  <g
     transform="translate(0.000000,794.000000) scale(0.100000,-0.100000)"
     fill="#000000"
     stroke="none"
     id="g52">
    <path
       d="M3848 6593 c-59 -96 -113 -206 -126 -255 -16 -59 10 -131 102 -282 59 -98 41 -146 -54 -146 -87 0 -107 39 -75 144 28 92 0 158 -94 225 -109 76 -254 131 -345 131 l-41 0 55 -47 c197 -172 299 -337 345 -555 13 -63 31 -132 40 -154 21 -50 60 -91 96 -99 41 -9 108 15 145 53 17 18 35 29 38 23 13 -21 101 -71 125 -71 76 0 132 84 151 226 31 233 123 410 310 593 l75 74 -50 -7 c-107 -16 -243 -82 -345 -166 -91 -76 -108 -134 -70 -231 26 -66 20 -104 -22 -125 -36 -19 -103 -14 -126 9 -26 26 -16 67 43 182 82 158 82 178 10 325 -62 125 -122 230 -133 230 -4 0 -28 -35 -54 -77z"
       id="path4" />
    <path
       d="M1083 6520 c-24 -10 -54 -30 -68 -44 -21 -21 -24 -29 -15 -46 14 -26 70 -54 140 -70 288 -66 432 -164 484 -329 55 -174 59 -232 63 -933 l5 -648 -476 0 -476 0 0 -40 0 -40 3230 0 3230 0 0 40 0 40 -357 0 c-196 0 -354 3 -351 6 8 7 210 49 356 74 94 16 119 24 151 49 45 36 121 117 121 129 0 12 -75 22 -158 22 -64 0 -67 -2 -174 -70 -97 -63 -292 -167 -374 -199 -17 -7 -57 -11 -90 -9 l-59 3 -3 485 c-5 737 17 1015 93 1185 62 137 187 208 410 230 81 8 148 42 170 85 13 25 13 30 -6 54 -11 14 -37 30 -57 36 -25 7 -262 10 -736 8 l-698 -3 -148 -425 c-82 -234 -184 -528 -228 -655 -44 -126 -84 -238 -87 -248 -7 -18 -40 -34 -166 -87 l-57 -23 -30 21 c-47 34 -109 47 -160 33 -100 -28 -248 -224 -302 -400 l-17 -54 -7 54 c-11 86 -78 213 -126 239 -15 8 -14 0 8 -63 55 -154 27 -289 -71 -336 -54 -26 -58 -26 -91 0 -17 13 -28 34 -32 60 -4 21 -10 39 -13 39 -15 0 -95 -88 -123 -135 l-29 -50 7 44 c6 39 26 106 49 165 7 17 6 17 -21 3 -63 -33 -98 -92 -116 -196 -7 -39 -15 -71 -18 -71 -3 1 -31 54 -62 118 -57 119 -124 212 -189 264 -26 21 -51 31 -90 35 -47 4 -62 1 -112 -26 -54 -28 -60 -30 -81 -15 -26 16 -25 13 -159 399 -52 149 -177 505 -277 793 l-183 522 -691 0 c-661 0 -693 -1 -733 -20z m984 -633 c22 -67 107 -315 188 -550 118 -345 144 -431 135 -442 -10 -12 -9 -15 6 -15 16 0 31 -36 88 -203 38 -111 71 -208 74 -214 3 -10 -56 -13 -277 -13 l-281 0 0 780 c0 617 3 780 13 780 7 0 30 -53 54 -123z m3531 -669 l-3 -763 -277 -3 c-153 -1 -278 -1 -278 0 0 2 56 161 123 353 141 402 112 362 272 364 54 1 85 5 80 10 -16 15 -132 51 -165 51 -16 0 -30 3 -30 6 0 3 55 159 121 347 67 188 126 354 131 370 6 15 14 27 19 27 5 0 8 -310 7 -762z m-844 -640 c-19 -57 -37 -110 -40 -118 -3 -10 -12 -2 -27 25 -28 50 -89 93 -147 104 l-45 8 40 7 c125 23 170 36 252 75 1 1 -14 -45 -33 -101z"
       id="path6" />
    <path
       d="M3042 6400 c154 -196 231 -348 283 -559 20 -83 24 -130 29 -357 7 -288 16 -340 66 -398 40 -46 106 -64 169 -47 60 16 110 55 130 102 9 22 19 39 23 39 12 0 67 -123 83 -185 8 -33 20 -100 27 -150 6 -49 17 -99 25 -110 13 -18 14 -15 8 30 -14 107 -48 276 -82 410 -85 335 -226 641 -404 877 -66 88 -264 291 -339 348 l-45 35 27 -35z"
       id="path8" />
    <path
       d="M4606 6288 c-178 -178 -304 -378 -415 -656 -102 -255 -155 -490 -195 -861 -10 -95 15 -17 49 153 19 98 44 199 56 225 l21 46 19 -37 c10 -20 35 -49 56 -65 30 -23 48 -28 107 -31 61 -3 76 -1 105 20 45 30 69 71 82 143 9 48 7 84 -11 209 -29 195 -24 363 14 511 32 122 114 293 191 393 30 39 53 72 50 72 -4 0 -62 -55 -129 -122z"
       id="path10" />
    <path
       d="M6513 6139 c-45 -13 -100 -71 -112 -116 -15 -51 -13 -133 3 -161 31 -57 134 -83 169 -44 55 60 15 162 -63 162 -23 0 -73 -58 -66 -77 4 -9 1 -13 -6 -10 -8 2 -13 24 -13 59 1 120 101 182 239 147 86 -21 149 -99 166 -203 29 -179 -99 -449 -267 -559 -88 -58 -96 -101 -29 -171 29 -32 39 -36 82 -36 29 0 59 7 72 16 12 8 22 13 22 10 0 -21 -137 -232 -197 -303 -25 -29 -41 -53 -36 -53 10 1 146 162 210 250 86 118 212 331 243 411 49 127 56 234 25 364 -13 51 -76 164 -121 214 -62 69 -128 102 -217 107 -40 2 -87 -1 -104 -7z"
       id="path12" />
    <path
       d="M1252 6115 c-29 -8 -63 -20 -75 -26 -80 -43 -160 -143 -204 -255 -24 -61 -27 -83 -27 -184 0 -100 4 -124 26 -180 82 -210 250 -472 413 -645 l56 -60 -54 70 c-63 81 -187 280 -187 300 0 3 13 -4 29 -16 18 -13 45 -22 71 -23 37 -1 46 4 81 41 30 33 39 50 39 78 0 39 -17 60 -88 107 -54 36 -119 120 -175 227 -75 142 -94 251 -61 360 54 183 301 241 380 89 14 -27 20 -119 8 -131 -4 -3 -16 13 -28 36 -17 34 -27 43 -52 45 -47 5 -84 -30 -84 -78 0 -79 30 -108 97 -95 74 14 103 52 103 134 0 160 -115 248 -268 206z"
       id="path14" />
    <path
       d="M6480 5675 c-7 -9 -14 -51 -16 -100 -3 -89 -29 -168 -65 -201 -37 -33 -18 -35 40 -4 112 60 178 197 141 294 -8 22 -16 26 -49 26 -22 0 -44 -6 -51 -15z"
       id="path16" />
    <path
       d="M1345 5649 c-39 -42 -11 -184 48 -247 30 -33 69 -60 112 -78 l37 -15 -31 38 c-49 62 -64 109 -66 207 -1 74 -5 91 -20 102 -27 20 -59 17 -80 -7z"
       id="path18" />
    <path
       d="M6860 5117 c-14 -7 -34 -30 -44 -51 -18 -38 -18 -41 -2 -106 17 -64 17 -68 -3 -126 -11 -32 -18 -61 -16 -63 3 -2 38 22 80 53 86 65 115 111 115 183 0 58 -19 90 -66 109 -40 17 -33 17 -64 1z"
       id="path20" />
    <path
       d="M957 5066 c-35 -32 -42 -68 -28 -129 16 -69 75 -145 140 -181 29 -15 54 -26 56 -24 3 2 -5 29 -16 58 -14 38 -19 67 -15 95 18 123 17 139 -3 173 -18 28 -26 32 -64 32 -33 0 -51 -6 -70 -24z"
       id="path22" />
    <path
       d="M6486 4728 c-23 -33 -20 -65 10 -95 20 -20 31 -24 57 -19 39 8 57 30 57 72 0 43 -23 64 -70 64 -29 0 -43 -6 -54 -22z"
       id="path24" />
    <path
       d="M1326 4707 c-29 -21 -27 -84 3 -108 61 -50 134 15 99 88 -10 22 -21 29 -48 31 -19 2 -44 -4 -54 -11z"
       id="path26" />
    <path
       d="M740 3520 l0 -40 73 0 72 -1 45 -67 c55 -82 129 -135 220 -158 175 -44 367 37 406 173 l15 53 60 0 59 0 0 -664 c0 -836 -9 -965 -75 -1103 -76 -161 -202 -237 -448 -268 -56 -7 -130 -59 -135 -94 -5 -30 29 -65 76 -80 28 -9 218 -11 754 -9 l716 3 44 30 c51 37 58 58 26 92 -36 38 -71 53 -158 64 -212 26 -338 107 -419 267 -57 112 -71 336 -71 1155 l0 607 449 0 449 0 25 -72 c14 -40 170 -491 347 -1003 177 -511 338 -978 358 -1037 l37 -108 130 0 130 0 63 183 c122 350 701 2002 707 2020 7 16 38 17 457 17 l450 0 -5 -682 c-6 -719 -11 -810 -56 -1000 -26 -111 -58 -173 -114 -225 -79 -73 -165 -105 -327 -123 -75 -9 -103 -16 -133 -37 -74 -51 -74 -79 -1 -121 l56 -32 907 0 908 0 34 23 c92 62 17 141 -161 172 -233 39 -372 173 -415 397 -25 131 -35 432 -35 1041 l0 587 44 0 c42 0 44 -1 60 -45 23 -59 100 -128 163 -146 26 -7 91 -13 143 -13 86 -1 101 3 160 30 65 31 137 94 168 146 16 27 18 28 109 28 l93 0 0 40 0 40 -3230 0 -3230 0 0 -40z m582 -65 c16 -14 38 -25 49 -25 11 0 31 11 45 25 20 20 35 25 75 25 49 0 49 0 43 -27 -23 -94 -95 -151 -224 -175 -112 -21 -229 42 -286 154 l-24 48 146 0 c141 0 147 -1 176 -25z m2394 -13 c-3 -21 -6 -96 -6 -167 l-1 -130 65 -180 c36 -99 65 -175 66 -170 0 6 -7 44 -16 85 -18 85 -24 395 -11 523 l9 78 116 -3 116 -3 8 -30 c25 -92 42 -241 47 -433 l6 -213 44 118 44 118 -12 115 c-10 99 -38 255 -57 312 -5 17 5 18 116 18 112 0 122 -1 115 -17 -18 -47 -303 -855 -343 -975 -41 -120 -62 -163 -62 -127 0 5 -85 258 -190 560 -104 303 -190 552 -190 555 0 2 32 4 71 4 l72 0 -7 -38z m2840 23 c26 -4 44 -3 48 4 8 13 286 16 286 3 0 -5 -17 -33 -38 -62 -50 -72 -120 -110 -203 -110 -105 0 -231 75 -258 152 l-11 30 68 -6 c37 -2 86 -8 108 -11z"
       id="path28" />
    <path
       d="M6952 3358 c-73 -117 -256 -208 -447 -224 -104 -8 -125 -22 -125 -85 0 -71 31 -108 92 -109 108 -1 295 120 411 265 47 59 44 31 -6 -53 -65 -109 -275 -279 -425 -343 -25 -11 -51 -27 -58 -37 -20 -26 -18 -106 4 -125 48 -43 110 -7 275 162 64 66 117 117 117 113 0 -3 -18 -43 -40 -88 -58 -120 -141 -219 -230 -274 -40 -25 -88 -60 -107 -78 -29 -27 -34 -37 -28 -60 9 -37 34 -62 61 -62 35 0 138 136 236 310 45 81 48 83 48 50 1 -26 14 3 49 110 26 80 71 201 99 269 54 127 106 281 98 288 -2 2 -13 -11 -24 -29z"
       id="path30" />
    <path
       d="M930 3352 c0 -27 82 -258 115 -324 20 -40 43 -99 51 -131 8 -31 25 -79 38 -105 13 -26 29 -73 36 -106 13 -62 117 -375 195 -589 l48 -128 23 22 c13 12 28 37 33 55 16 59 -2 108 -92 241 -109 164 -140 220 -171 315 -44 130 -32 131 45 3 121 -205 178 -275 221 -275 27 0 58 37 58 69 0 40 -31 75 -99 111 -121 65 -221 182 -281 332 -17 41 -22 62 -12 48 155 -223 335 -346 388 -265 22 34 13 101 -18 130 -13 13 -53 29 -93 39 -105 24 -189 70 -259 140 -70 70 -106 127 -142 224 l-25 67 27 -35 c132 -171 356 -305 448 -266 17 7 41 25 54 39 19 20 22 31 17 60 -11 59 -24 69 -96 74 -207 14 -388 100 -481 227 -15 21 -28 34 -28 28z"
       id="path32" />
    <path
       d="M2785 2954 c-116 -118 -202 -286 -250 -486 -33 -142 -45 -244 -49 -443 -2 -93 -2 -150 0 -125 26 296 51 432 109 607 42 125 144 338 209 436 25 37 43 67 41 67 -3 0 -29 -25 -60 -56z"
       id="path34" />
    <path
       d="M4787 2942 c66 -99 167 -312 209 -436 60 -182 88 -342 107 -606 2 -25 4 0 5 55 5 292 -48 576 -143 770 -46 93 -152 238 -197 267 -21 14 -19 7 19 -50z"
       id="path36" />
    <path
       d="M2050 2948 c0 -3 25 -46 56 -94 181 -288 272 -591 293 -982 9 -155 9 -154 6 78 -2 187 -7 259 -24 354 -36 204 -109 385 -204 511 -44 58 -127 145 -127 133z"
       id="path38" />
    <path
       d="M5480 2893 c-74 -81 -106 -126 -152 -217 -94 -186 -138 -394 -143 -671 -1 -99 -1 -153 1 -120 21 361 122 690 298 969 31 49 55 91 53 93 -3 2 -28 -22 -57 -54z"
       id="path40" />
    <path
       d="M6681 2559 c-14 -42 -99 -182 -171 -283 -64 -91 -85 -142 -75 -186 8 -34 41 -80 59 -80 12 0 211 568 202 577 -2 2 -9 -10 -15 -28z"
       id="path42" />
    <path
       d="M6685 2449 c-37 -132 -46 -188 -52 -340 -4 -100 -1 -185 6 -237 12 -78 68 -278 76 -270 3 2 0 41 -5 86 -14 125 8 233 87 417 44 103 45 140 4 177 -32 29 -69 35 -101 18 -34 -18 -35 41 -3 143 8 26 13 52 11 59 -3 7 -13 -17 -23 -53z"
       id="path44" />
    <path
       d="M1201 2470 c0 -8 8 -44 19 -78 11 -35 20 -79 20 -98 0 -31 -2 -34 -19 -24 -36 19 -77 12 -110 -19 -43 -40 -41 -81 9 -193 23 -49 52 -130 67 -180 22 -78 25 -103 20 -182 -2 -50 -8 -100 -12 -111 -6 -14 -5 -17 2 -10 13 12 57 149 75 230 8 37 13 124 12 225 0 141 -4 181 -26 275 -25 107 -56 195 -57 165z"
       id="path46" />
    <path
       d="M2901 2468 c-120 -21 -229 -143 -288 -323 -22 -70 -26 -96 -25 -210 0 -71 5 -146 10 -165 8 -28 10 -12 11 82 1 143 20 248 61 332 64 135 222 222 336 186 109 -34 154 -97 162 -223 5 -92 -13 -153 -59 -191 -58 -49 -156 -59 -191 -18 -23 25 -30 59 -18 81 10 19 12 19 38 4 53 -30 102 5 102 73 0 30 -38 71 -76 80 -70 18 -124 -43 -124 -140 0 -115 50 -171 153 -171 75 1 132 26 158 69 l19 31 0 -40 c1 -96 71 -179 168 -200 l32 -7 -29 33 c-56 61 -92 192 -112 409 -11 124 -32 185 -77 233 -57 60 -160 91 -251 75z"
       id="path48" />
    <path
       d="M4589 2469 c-98 -15 -183 -85 -212 -175 -9 -27 -20 -107 -27 -179 -16 -196 -52 -317 -110 -375 -27 -27 -7 -25 57 4 65 31 110 90 119 155 l6 47 37 -37 c80 -80 237 -59 277 37 18 44 18 138 -1 174 -35 67 -106 80 -157 30 -26 -27 -30 -36 -25 -67 11 -67 40 -82 114 -58 49 16 36 -73 -16 -100 -64 -33 -162 -3 -202 62 -27 43 -37 165 -20 229 38 140 180 198 322 132 153 -71 227 -230 230 -493 1 -103 2 -114 11 -80 15 58 15 261 -1 325 -19 80 -83 208 -131 263 -75 85 -167 121 -271 106z"
       id="path50" />
  </g>
</svg>
